<?xml version="1.0" encoding="UTF-8"?>
<!DOCTYPE svg PUBLIC "-//W3C//DTD SVG 1.1//EN" "http://www.w3.org/Graphics/SVG/1.1/DTD/svg11.dtd">
<!-- Creator: CorelDRAW -->
<svg xmlns="http://www.w3.org/2000/svg" xml:space="preserve" width="97.6598mm" height="94.8471mm" version="1.1" style="shape-rendering:geometricPrecision; text-rendering:geometricPrecision; image-rendering:optimizeQuality; fill-rule:evenodd; clip-rule:evenodd"
viewBox="0 0 1858.99 1805.45"
 xmlns:xlink="http://www.w3.org/1999/xlink"
 xmlns:xodm="http://www.corel.com/coreldraw/odm/2003">
 <defs>
  <style type="text/css">
   <![CDATA[
    .fil0 {fill:#010101}
   ]]>
  </style>
 </defs>
 <g id="Katman_x0020_1">
  <metadata id="CorelCorpID_0Corel-Layer"/>
  <path class="fil0" d="M1112.19 1805.45c-23.1,0 -30.64,-10.63 -33.47,-33.65 -0.77,-6.29 -0.82,-13.39 -0.87,-20.24l-0.02 -2.02c-0.1,-12.45 -0.36,-25.13 -0.61,-37.81 -0.16,-8.03 -0.32,-16.07 -0.45,-24.71 -0.28,-18.65 -0.3,-37.48 -0.32,-56.29 -0.03,-24.64 -0.06,-49.29 -0.69,-73.94 -1.56,-61.12 -2.33,-124.67 -3.1,-188.6 -1.33,-109.33 -2.67,-219.8 -8.08,-323.03 -0.89,-17.1 -1.15,-35.12 -1.4,-53.18 -0.34,-24.39 -0.69,-48.86 -2.76,-72.25l-0.05 -0.21 -8.08 -109.13c-5.65,-0.49 -10.52,-1.08 -15.12,-1.64 -14.49,-1.76 -26.16,-3.18 -46.17,0.98 -18.9,3.93 -36.56,7.26 -54.69,10.68l-16.76 3.17c-83.42,15.88 -152.12,26.95 -221.4,36.43 -69.56,9.52 -138.94,17.35 -223.99,26.76 -63.02,6.97 -180.49,11.39 -280.31,-5.03 -68.85,-11.33 -129.87,-32.79 -160.97,-70.45 -7.09,-8.58 -12.95,-17.4 -17.67,-26.4 -26.39,-50.31 -16.38,-104.16 14.38,-156.88 29.35,-50.31 78.01,-99.75 131.33,-143.77 75.99,-62.75 161.77,-114.66 213.79,-141.95 86.52,-45.38 158.48,-80.41 232.61,-111.7 74.11,-31.28 150.34,-58.8 245.38,-89.16 118.4,-37.82 318.53,-89.51 509.22,-118.73 137.55,-21.08 270.65,-30.54 365.78,-14.89 23.45,3.85 46.43,9.95 66.26,18.74 20.63,9.15 38.12,21.3 49.79,37.02 12.27,16.55 17.94,36.53 14.02,60.42 -1.51,9.19 -4.43,18.84 -8.92,28.97 -3.73,8.41 -10.02,18.5 -16.81,27.81 -7.37,10.11 -15.49,19.45 -21.61,24.77 -3.52,3.06 -6.76,6.69 -10.05,10.4 -3.07,3.45 -6.2,6.97 -10.37,10.91l-0.53 0.42 -22.99 19.57 0 0.05c-74.88,63.44 -203.88,139.98 -338.49,212.12 -134.39,72.01 -273.98,139.48 -370.81,185.08 -17.11,8.06 -33.03,16.17 -49.04,24.38l4.93 -1.11c1.79,-0.4 3.57,-0.8 9.26,-2.15 56.9,-13.46 276.23,-59.61 446.82,-91.7 109.01,-20.5 198.78,-35.19 215.78,-32 11.54,2.17 20.82,7.83 27.47,15.43 6.1,6.96 9.91,15.52 11.18,24.46 1.26,8.91 -0.01,18.24 -4.07,26.8 -4.45,9.38 -12.17,17.75 -23.46,23.47 -15.98,8.1 -45.86,16.23 -70.05,22.81 -6.9,1.88 -13.34,3.63 -18.06,4.98l-262.39 70.43 -0.31 0.05 -19.09 4.68c-25.97,6.39 -52.77,12.97 -72.22,17.61 -3.7,0.88 -10.89,2.18 -19.41,3.7 -24.08,4.32 -60.87,10.92 -62.99,15.32 -0.28,0.57 -0.81,2.19 -1.39,3.99 -3.86,11.8 -9.31,28.44 -33.24,34.17 -2.55,39.27 -4.83,77.1 -6.47,114.53 -1.82,41.5 -2.93,83.15 -2.92,126.75l-0.02 33.34c-0.08,73.6 -0.17,150.65 4.05,222.86 1.08,18.4 1.86,38.82 2.41,59.65 0.62,23.75 0.92,47.84 0.99,69.84 0.14,47.63 3.9,124.37 7.07,189.03 1.08,22.03 2.09,42.64 2.89,60.9 0.46,10.48 1.45,21.07 2.41,31.33 3.13,33.38 12.98,87.83 -35.1,87.83zm-200.05 -1059.66c-1.62,-12.78 0.87,-23.39 6.16,-32.26l-7.85 4.22c-6.25,3.37 -12.44,6.71 -20.66,10.93l0.01 0.02c-5.99,3.08 -11.6,6.55 -17.27,10.05 -3.53,2.18 -7.02,4.35 -8.94,5.48l-26.35 17.07 -0.49 0.24c-6.67,3.26 -13.49,4.83 -20.14,5 -9.49,0.24 -18.35,-2.47 -25.8,-7.24 -7.37,-4.72 -13.37,-11.47 -17.24,-19.37 -2.9,-5.93 -4.6,-12.62 -4.78,-19.69 -0.86,-34.07 18.9,-40.93 40.98,-48.59 3.68,-1.28 7.46,-2.59 11.5,-4.31 17.09,-8.54 42.53,-17.42 60.93,-24.75 13.87,-5.32 25.18,-10.23 36.56,-15.17 7.86,-3.41 15.75,-6.84 22.93,-9.81 121.92,-50.45 265.14,-113.79 402.25,-184.65 136.6,-70.59 266.94,-148.58 363.57,-228.5 10.81,-8.94 33.71,-30.05 50.5,-51.94 9.89,-12.89 17.49,-25.65 18.43,-35.13 1.31,-13.22 -11.72,-23.13 -28.79,-30.46 -20.73,-8.9 -46.98,-13.71 -65.49,-16.47 -89.71,-13.36 -198.78,-7.62 -305.49,6.13 -106.98,13.78 -211.99,35.71 -292.9,54.55 -142.55,33.19 -310.44,85.89 -468.66,153.4 -133.15,56.82 -259.39,124.1 -357.72,199 -12.28,9.35 -34.55,27.08 -54.34,43.71 -14.35,12.06 -27.65,23.74 -35.34,31.58l-20.61 21.28c-9.3,10.83 -18.99,22.31 -28.1,34.29 -9.02,11.86 -17.44,24.14 -24.22,36.6 -42.13,77.38 -15.21,120.92 37.36,145.82 57.7,27.34 144.81,34.68 212.18,38.23 66.63,3.51 147.92,-1.66 229.58,-10.58 81.86,-8.93 164.14,-21.65 232.44,-33.16l23.29 -3.86c30.2,-4.98 62.4,-10.29 92.11,-16.67 -4.56,-5.56 -8.08,-12.97 -9.6,-25zm218.97 -29.7c3.67,1.01 7.34,2.26 11.12,3.72l0.05 0c5.98,2.3 10.33,1.02 16.88,-0.91 2.7,-0.79 5.66,-1.67 9.54,-2.62 44.02,-10.75 86.31,-21.51 129.21,-33.07 25.55,-6.88 51.13,-14.02 77.22,-21.57 -35.45,7.11 -72.93,14.98 -109.6,23.03 -48.69,10.69 -95.76,21.63 -134.43,31.4z"/>
 </g>
</svg>
