<?xml version="1.0" encoding="UTF-8"?>
<!DOCTYPE svg PUBLIC "-//W3C//DTD SVG 1.1//EN" "http://www.w3.org/Graphics/SVG/1.1/DTD/svg11.dtd">
<!-- Creator: CorelDRAW -->
<svg xmlns="http://www.w3.org/2000/svg" xml:space="preserve" width="97.6571mm" height="94.8874mm" version="1.1" style="shape-rendering:geometricPrecision; text-rendering:geometricPrecision; image-rendering:optimizeQuality; fill-rule:evenodd; clip-rule:evenodd"
viewBox="0 0 1858.87 1806.15"
 xmlns:xlink="http://www.w3.org/1999/xlink"
 xmlns:xodm="http://www.corel.com/coreldraw/odm/2003">
 <defs>
  <style type="text/css">
   <![CDATA[
    .str0 {stroke:black;stroke-width:26.86;stroke-miterlimit:22.9256}
    .fil0 {fill:#010101}
   ]]>
  </style>
 </defs>
 <g id="Katman_x0020_1">
  <metadata id="CorelCorpID_0Corel-Layer"/>
  <path class="fil0 str0" d="M1064.7 797.73l8.95 120.79c3.65,41.1 2.05,84.53 4.22,125.89 8.55,163.02 6.94,345.38 11.19,511.98 1.1,43.25 0.36,87 1.01,130.39 0.31,20.87 0.89,41.58 1.06,62.57 0.18,21.37 -0.52,46.32 25.66,43.11 30.36,-3.73 16.74,-57.24 14.61,-105.67 -3.04,-69.26 -9.77,-185.55 -9.96,-250.49 -0.12,-40.44 -1.03,-88.32 -3.39,-128.75 -4.86,-83.16 -4.01,-173.2 -4.03,-256.92 -0.02,-88.03 4.45,-167.19 10.1,-252.88 30.39,-2.28 31.02,-23.53 35.24,-32.31 6.59,-13.7 73.08,-21.95 91.36,-26.31 29.76,-7.1 61.59,-14.97 91.26,-22.24l262.17 -70.38c24.25,-6.95 66.95,-17.32 85.74,-26.84 31.92,-16.17 24.76,-58.96 -7.55,-65.03 -39.14,-7.35 -564.15,101.61 -657.07,123.58 -33.7,7.97 -105.81,19.7 -99.95,65.85 2.7,21.26 14.22,23.35 24.55,33.88 -43.55,11.01 -96.31,18.94 -141.41,26.54 -136.94,23.07 -330.02,50.99 -464.89,43.89 -137.18,-7.23 -355.17,-30.15 -260.6,-203.82 14.37,-26.4 35.09,-51.31 54.16,-73.5l20.93 -21.6c18.69,-19.07 70.19,-60.64 91.15,-76.6 216.99,-165.28 567.52,-293.34 831.43,-354.8 162.14,-37.75 421.41,-87.97 603.35,-60.88 38.6,5.74 109.75,20.18 105.65,61.52 -3.14,31.65 -55.3,80.87 -73.7,96.09 -194.82,161.14 -524.68,313.98 -769.25,415.18 -20.44,8.46 -38.45,16.94 -59.8,25.13l-60.46 24.54c-21.35,9.13 -45.1,10.14 -44.34,40.26 0.58,23 24.48,41.39 48.7,29.55l25.9 -16.78c9.1,-5.41 17.62,-11.14 26.88,-15.9 18.3,-9.4 37.04,-20.29 55.95,-29.14 39.41,-18.45 74.64,-38.18 111.85,-55.7 193.72,-91.23 558.09,-269.69 706.33,-395.29l22.99 -19.57c7.9,-7.46 12.89,-14.77 20.84,-21.68 10.42,-9.05 27.85,-31.94 34.91,-47.86 34.37,-77.54 -35.43,-114.1 -111.01,-126.53 -223.94,-36.83 -666.52,68.53 -868.78,133.15 -189.18,60.44 -303.45,109.55 -475.82,199.97 -129.23,67.79 -469.2,289.33 -337.67,448.63 71.55,86.66 325.45,82.17 429.45,70.66 170.46,-18.86 277.85,-31.34 444.37,-63.03 24.2,-4.6 46.77,-8.71 71.19,-13.79 32.91,-6.85 44.71,-0.2 76.53,1.16zm-32.21 -65.17c29.62,11.5 58.59,-5.41 69.38,-6.07 13.87,-0.84 24.18,1.4 35.49,5.75 13.22,5.1 19.51,0.63 34.4,-3 89.62,-21.88 169.86,-43.19 257.71,-69.75 42,-12.7 81.08,-27.35 122.25,-40.95 -71.48,3.2 -478.14,89.55 -519.23,114.01z"/>
 </g>
</svg>
